<svg width="40" height="39" viewBox="0 0 40 39" fill="none" xmlns="http://www.w3.org/2000/svg">
<path d="M23.379 13.0691H16.8962V4.96566C16.8962 3.17551 18.3474 1.7243 20.1376 1.7243H20.1376C21.9278 1.7243 23.379 3.17551 23.379 4.96566V13.0691Z" fill="black"/>
<path d="M20.1376 37.3792H20.1376C18.3474 37.3792 16.8962 35.928 16.8962 34.1379V32.5172H23.379V34.1379C23.379 35.928 21.9278 37.3792 20.1376 37.3792Z" fill="black"/>
<path d="M29.8617 21.0982V16.3104C29.8617 10.94 25.5081 6.58636 20.1376 6.58636H20.1376C14.7671 6.58636 10.4135 10.94 10.4135 16.3104V21.0982C10.4135 22.1571 9.8843 23.146 9.00323 23.7334L6.96178 25.0943C6.0807 25.6817 5.55148 26.6706 5.55148 27.7295V27.7295C5.55148 29.4786 6.96943 30.8966 8.71855 30.8966H31.5567C33.3058 30.8966 34.7237 29.4786 34.7237 27.7295V27.7295C34.7237 26.6706 34.1945 25.6817 33.3134 25.0943L31.272 23.7334C30.3909 23.146 29.8617 22.1571 29.8617 21.0982Z" fill="black"/>
</svg>
